<?xml version="1.0" encoding="UTF-8"?> <svg xmlns="http://www.w3.org/2000/svg" width="1921" height="217" viewBox="0 0 1921 217" fill="none"><path d="M1298.69 35.9363C1300.09 37.5335 1300.59 39.4302 1300.19 41.6263C1299.99 43.8224 1299.39 45.3198 1298.39 46.1184C1281.62 57.2987 1259.96 72.5718 1233.4 91.9376C1227.81 96.3299 1224.82 98.8255 1224.42 99.4245C1222.42 101.82 1221.72 105.214 1222.32 109.607C1226.72 149.336 1234.3 169.201 1245.08 169.201C1248.88 169.201 1253.07 166.906 1257.66 162.314C1260.26 160.117 1262.55 159.019 1264.55 159.019C1266.95 159.019 1268.14 160.317 1268.14 162.913C1268.14 164.31 1267.54 165.508 1266.35 166.506C1249.98 181.28 1236.2 188.667 1225.02 188.667C1214.24 188.667 1206.25 181.58 1201.06 167.405C1198.47 159.818 1195.37 144.745 1191.78 122.184C1180.6 131.368 1165.02 143.647 1145.06 159.019C1142.07 161.016 1139.47 162.014 1137.27 162.014C1135.28 162.014 1133.48 161.116 1131.88 159.319C1130.09 157.322 1129.19 155.326 1129.19 153.329C1129.19 150.534 1130.79 147.939 1133.98 145.543C1151.75 133.165 1170.42 119.988 1189.98 106.013C1189.98 106.212 1189.78 103.318 1189.38 97.3281C1189.18 91.139 1189.08 85.3493 1189.08 79.9588C1189.08 37.0344 1196.77 13.0766 1212.14 8.08541C1213.74 7.48648 1215.54 7.18701 1217.53 7.18701C1223.52 7.18701 1228.51 9.38314 1232.51 13.7754C1233.5 14.9733 1234 16.271 1234 17.6685C1234 18.8664 1233.1 21.1624 1231.31 24.5564C1224.72 43.1237 1221.33 63.7873 1221.13 86.5471C1237.5 74.5683 1257.86 58.7961 1282.22 39.2305C1287.21 35.2376 1291 33.2411 1293.6 33.2411C1295.59 33.2411 1297.29 34.1395 1298.69 35.9363Z" fill="#253237"></path><path d="M1146.32 56.3007C1132.74 72.4722 1116.47 96.7295 1097.5 129.072C1079.73 159.419 1068.25 181.68 1063.06 195.855C1061.67 199.249 1060.27 204.34 1058.87 211.128C1058.87 212.525 1058.67 214.023 1058.27 215.62C1057.67 216.219 1056.97 216.518 1056.17 216.518C1053.98 216.518 1051.38 215.121 1048.39 212.326C1045.59 209.531 1043.7 206.636 1042.7 203.641C1041.3 199.448 1040.6 194.956 1040.6 190.165C1040.6 181.181 1043.2 170.699 1048.39 158.72C1048.99 157.323 1053.58 148.139 1062.16 131.169C1047.79 144.346 1033.32 156.125 1018.74 166.506C997.378 181.48 981.307 188.767 970.526 188.368C960.344 187.969 955.253 182.478 955.253 171.897C955.253 150.934 972.223 115.796 1006.16 66.4828C1026.93 36.5356 1042.4 17.9683 1052.58 10.781C1054.38 9.58307 1056.67 8.98413 1059.47 8.98413C1064.46 8.98413 1068.45 10.4815 1071.45 13.4762C1074.44 16.4709 1075.94 20.0646 1075.94 24.2572C1075.94 26.8526 1075.24 28.9489 1073.84 30.5461C1058.27 49.3131 1042.6 70.1763 1026.83 93.1358C1003.87 126.677 992.387 148.937 992.387 159.918C992.387 163.711 993.984 165.608 997.179 165.608C1003.17 165.608 1013.85 159.419 1029.22 147.041C1039.6 138.855 1047.99 131.568 1054.38 125.179C1064.16 115.197 1075.44 101.521 1088.22 84.1517C1106.59 58.996 1116.77 45.2203 1118.76 42.8245C1122.56 38.2326 1127.25 35.9366 1132.84 35.9366C1137.03 35.9366 1140.43 37.1345 1143.02 39.5303C1146.62 42.9243 1148.41 46.518 1148.41 50.3113C1148.41 52.7071 1147.71 54.7035 1146.32 56.3007Z" fill="#253237"></path><path d="M1009.4 27.5516C1006.81 28.5499 1002.01 29.049 995.027 29.049C990.035 29.049 985.044 29.049 980.053 29.049C970.669 29.2486 964.68 30.6462 962.085 33.2416C950.904 44.4219 935.132 64.3867 914.768 93.1361C919.759 93.1361 932.337 91.8383 952.501 89.2429C954.897 88.8436 956.095 89.2429 956.095 90.4408C956.095 91.8383 955.097 93.4355 953.1 95.2324C951.104 97.0292 949.207 98.2271 947.41 98.826C940.423 100.224 928.244 102.819 910.875 106.612C906.682 107.411 903.688 109.208 901.891 112.003C896.899 119.19 891.01 128.673 884.222 140.453C877.633 152.032 873.64 160.018 872.243 164.41C871.644 166.008 871.344 167.206 871.344 168.004C871.344 170.4 873.042 171.598 876.436 171.598C878.232 171.598 880.528 171.298 883.323 170.699C906.083 166.107 925.449 160.617 941.421 154.228C943.218 153.43 944.715 153.03 945.913 153.03C947.51 153.03 948.309 153.729 948.309 155.127C948.309 157.922 946.412 160.417 942.619 162.614C931.039 169.202 916.165 175.591 897.997 181.78C878.831 188.368 862.76 192.261 849.783 193.459C845.79 193.859 841.797 191.962 837.804 187.769C833.811 183.776 832.014 179.684 832.413 175.491C834.809 154.328 865.355 106.213 924.052 31.1453C915.866 31.1453 910.276 30.5464 907.281 29.3485C905.684 28.5499 904.885 27.0525 904.885 24.8564C904.885 22.8599 905.584 20.9632 906.982 19.1664C908.379 17.1699 910.176 16.2715 912.372 16.4712C920.558 16.6708 926.847 17.0701 931.239 17.669C934.833 17.669 937.029 17.4694 937.827 17.0701C942.22 14.6743 945.114 13.3766 946.512 13.177C952.302 11.9791 956.694 11.7794 959.689 12.578C963.083 13.177 965.778 14.3749 967.775 16.1717C969.771 17.7689 970.869 18.6673 971.069 18.8669C972.466 19.4659 974.363 19.8652 976.759 20.0648C979.554 20.0648 984.146 19.965 990.534 19.7654C999.119 19.3661 1005.41 19.1664 1009.4 19.1664C1010.2 19.1664 1010.7 19.7654 1010.9 20.9633C1011.3 22.1611 1011.3 23.4588 1010.9 24.8564C1010.7 26.2539 1010.2 27.1523 1009.4 27.5516Z" fill="#253237"></path><path d="M852.207 56.3009C852.207 70.476 843.821 84.4513 827.051 98.227C812.277 110.406 796.804 118.192 780.633 121.586C778.037 122.185 777.838 123.982 780.034 126.976C800.198 152.531 813.175 167.106 818.965 170.699C820.562 171.698 822.359 172.197 824.356 172.197C826.352 171.997 827.75 172.596 828.548 173.994C828.748 174.393 828.848 174.792 828.848 175.191C828.848 176.789 826.951 178.685 823.158 180.881C813.974 186.072 805.389 188.668 797.403 188.668C791.613 188.668 785.724 184.775 779.734 176.988C765.16 158.022 753.281 140.253 744.097 123.682C743.498 122.684 743.199 121.786 743.199 120.987C743.199 116.994 746.493 114.598 753.081 113.8C771.449 112.003 787.121 103.817 800.098 89.2429C811.478 76.2658 817.168 63.2886 817.168 50.3115C817.168 38.3326 811.778 31.9439 800.997 31.1453C797.403 30.746 794.209 31.9439 791.414 34.7389C782.629 44.1224 765.459 66.0837 739.905 100.623C719.54 127.975 703.369 153.43 691.39 176.988C687.397 184.974 685.101 190.964 684.502 194.957C684.303 196.753 683.704 198.65 682.705 200.647C680.31 201.245 677.614 199.948 674.62 196.753C671.625 193.559 669.728 190.664 668.93 188.069C667.732 184.475 667.133 180.582 667.133 176.389C667.133 158.022 681.308 129.771 709.658 91.6387C719.64 78.0626 735.512 58.4971 757.274 32.9421C738.906 34.14 718.742 40.7284 696.781 52.7073C691.59 55.5023 687.896 55.0032 685.7 51.2099C685.101 50.2117 684.802 49.1136 684.802 47.9157C684.802 44.921 686.199 42.625 688.994 41.0279C702.97 32.443 727.027 26.1541 761.167 22.1611C762.565 21.9615 764.96 21.4623 768.354 20.6637C770.151 20.0648 773.146 18.6673 777.339 16.4711C781.731 14.0754 787.421 13.6761 794.408 15.2733C797.004 15.8722 799.799 17.2697 802.794 19.4659C805.189 21.2627 808.284 22.1611 812.077 22.1611C838.83 27.1523 852.207 38.5323 852.207 56.3009Z" fill="#253237"></path><path d="M675.876 56.3007C662.299 72.4722 646.028 96.7295 627.062 129.072C609.293 159.419 597.813 181.68 592.622 195.855C591.225 199.249 589.827 204.34 588.43 211.128C588.43 212.525 588.23 214.023 587.831 215.62C587.232 216.219 586.533 216.518 585.734 216.518C583.538 216.518 580.943 215.121 577.948 212.326C575.153 209.531 573.256 206.636 572.258 203.641C570.861 199.448 570.162 194.956 570.162 190.165C570.162 181.181 572.757 170.699 577.948 158.72C578.547 157.323 583.139 148.139 591.724 131.169C577.349 144.346 562.875 156.125 548.3 166.506C526.938 181.48 510.866 188.767 500.085 188.368C489.903 187.969 484.812 182.478 484.812 171.897C484.812 150.934 501.782 115.796 535.723 66.4828C556.486 36.5356 571.959 17.9683 582.141 10.781C583.938 9.58307 586.234 8.98413 589.029 8.98413C594.02 8.98413 598.013 10.4815 601.007 13.4762C604.002 16.4709 605.5 20.0646 605.5 24.2572C605.5 26.8526 604.801 28.9489 603.403 30.5461C587.831 49.3131 572.158 70.1763 556.386 93.1358C533.427 126.677 521.947 148.937 521.947 159.918C521.947 163.711 523.544 165.608 526.738 165.608C532.728 165.608 543.409 159.419 558.782 147.041C569.164 138.855 577.549 131.568 583.938 125.179C593.72 115.197 605 101.521 617.778 84.1517C636.146 58.996 646.328 45.2203 648.324 42.8245C652.117 38.2326 656.809 35.9366 662.399 35.9366C666.592 35.9366 669.986 37.1345 672.581 39.5303C676.175 42.9243 677.972 46.518 677.972 50.3113C677.972 52.7071 677.273 54.7035 675.876 56.3007Z" fill="#253237"></path><path d="M538.961 27.5516C536.365 28.5499 531.574 29.049 524.586 29.049C519.595 29.049 514.604 29.049 509.613 29.049C500.229 29.2486 494.24 30.6462 491.644 33.2416C480.464 44.4219 464.692 64.3867 444.328 93.1361C449.319 93.1361 461.897 91.8383 482.061 89.2429C484.457 88.8436 485.655 89.2429 485.655 90.4408C485.655 91.8383 484.657 93.4355 482.66 95.2324C480.664 97.0292 478.767 98.2271 476.97 98.826C469.982 100.224 457.804 102.819 440.435 106.612C436.242 107.411 433.247 109.208 431.45 112.003C426.459 119.19 420.569 128.673 413.781 140.453C407.193 152.032 403.2 160.018 401.803 164.41C401.204 166.008 400.904 167.206 400.904 168.004C400.904 170.4 402.601 171.598 405.995 171.598C407.792 171.598 410.088 171.298 412.883 170.699C435.643 166.107 455.009 160.617 470.981 154.228C472.777 153.43 474.275 153.03 475.473 153.03C477.07 153.03 477.869 153.729 477.869 155.127C477.869 157.922 475.972 160.417 472.179 162.614C460.599 169.202 445.725 175.591 427.557 181.78C408.391 188.368 392.319 192.261 379.342 193.459C375.349 193.859 371.356 191.962 367.363 187.769C363.37 183.776 361.573 179.684 361.973 175.491C364.369 154.328 394.915 106.213 453.611 31.1453C445.426 31.1453 439.836 30.5464 436.841 29.3485C435.244 28.5499 434.445 27.0525 434.445 24.8564C434.445 22.8599 435.144 20.9632 436.541 19.1664C437.939 17.1699 439.736 16.2715 441.932 16.4712C450.117 16.6708 456.406 17.0701 460.799 17.669C464.392 17.669 466.588 17.4694 467.387 17.0701C471.779 14.6743 474.674 13.3766 476.072 13.177C481.861 11.9791 486.254 11.7794 489.248 12.578C492.642 13.177 495.338 14.3749 497.334 16.1717C499.331 17.7689 500.429 18.6673 500.628 18.8669C502.026 19.4659 503.923 19.8652 506.318 20.0648C509.113 20.0648 513.705 19.965 520.094 19.7654C528.679 19.3661 534.968 19.1664 538.961 19.1664C539.759 19.1664 540.259 19.7654 540.458 20.9633C540.857 22.1611 540.857 23.4588 540.458 24.8564C540.259 26.2539 539.759 27.1523 538.961 27.5516Z" fill="#253237"></path><path d="M415.422 14.0751C404.241 24.0575 388.769 43.9225 369.003 73.6701C336.66 122.584 317.095 158.221 310.307 180.582C310.107 183.776 309.808 187.17 309.408 190.764C309.209 190.963 309.009 191.163 308.81 191.363C308.011 191.762 307.212 191.962 306.414 191.962C301.822 191.962 298.028 188.667 295.034 182.079C292.239 176.489 290.841 170.999 290.841 165.608C290.841 150.834 300.424 127.775 319.59 96.43C313.202 100.623 295.433 102.719 266.284 102.719C264.288 102.719 261.792 104.715 258.798 108.708C250.412 122.284 236.936 144.545 218.369 175.491C214.376 182.478 209.185 185.972 202.796 185.972C199.003 185.972 195.509 184.575 192.315 181.78C189.12 178.984 187.523 175.69 187.523 171.897C187.523 169.901 188.022 168.004 189.021 166.207C198.204 151.433 210.882 130.769 227.054 104.216C225.456 104.017 222.961 104.017 219.567 104.216C215.175 104.616 212.18 104.815 210.583 104.815C203.595 104.815 198.704 103.118 195.908 99.7242C194.91 98.3266 194.411 96.5298 194.411 94.3337C194.411 88.9432 196.208 86.2479 199.802 86.2479C200.6 86.2479 201.299 86.3478 201.898 86.5474C209.884 89.9414 220.964 91.339 235.139 90.74C246.719 72.1727 262.092 48.3148 281.258 19.1662C283.454 15.9718 287.347 14.3746 292.937 14.3746C304.118 14.3746 309.708 18.5672 309.708 26.9524C309.708 28.35 309.408 29.5479 308.81 30.5461C298.627 45.7194 285.351 65.9837 268.98 91.339C295.533 91.339 312.004 90.6402 318.393 89.2427C319.99 88.8434 322.286 88.2444 325.28 87.4458L329.773 80.2585C343.948 58.2972 354.03 43.4234 360.019 35.6371C376.191 15.0734 389.467 4.7915 399.849 4.7915C407.236 4.7915 412.327 5.88956 415.122 8.08569C417.917 10.2818 418.017 12.2783 415.422 14.0751Z" fill="#253237"></path><path d="M163.163 21.2625C153.58 34.4393 144.197 47.6161 135.013 60.7929C133.216 63.1886 131.12 64.3865 128.724 64.3865C124.332 64.3865 122.135 61.9908 122.135 57.1992C122.135 55.8017 122.335 54.5039 122.734 53.3061C124.931 47.117 130.92 32.1434 140.703 8.38524C142.899 2.79508 146.692 0 152.083 0C154.478 0 156.874 0.698771 159.27 2.09631C163.063 4.29244 164.96 8.18557 164.96 13.7757C164.96 16.5708 164.361 19.0664 163.163 21.2625Z" fill="#253237"></path><path d="M137.575 20.364C120.405 36.3359 101.039 58.7963 79.477 87.7453C71.2914 99.1252 63.1059 111.404 54.9203 124.58C42.1428 144.944 36.5526 157.522 38.1498 162.314C38.5491 163.711 40.4458 164.41 43.8398 164.41C53.6226 164.41 72.09 159.918 99.2422 150.934C107.428 148.139 111.82 147.839 112.419 150.035C113.218 153.03 110.023 156.225 102.836 159.619C77.0812 172.196 52.6243 180.582 29.4651 184.774C20.0817 186.571 13.1938 185.872 8.80156 182.678C3.61071 178.086 0.715812 173.494 0.116867 168.902C-1.48032 156.125 13.2936 128.473 44.4388 85.9484C69.9937 51.2097 90.1582 27.5513 104.932 14.9735C109.125 11.3798 114.515 9.58301 121.104 9.58301C124.098 9.58301 127.093 9.98231 130.088 10.7809C136.077 12.3781 139.072 14.674 139.072 17.6688C139.072 18.667 138.573 19.5654 137.575 20.364Z" fill="#253237"></path><path d="M1918.54 40.1292C1919.94 41.7264 1920.44 43.623 1920.04 45.8192C1919.84 48.0153 1919.24 49.5127 1918.24 50.3113C1901.47 61.4916 1879.81 76.7646 1853.25 96.1305C1847.66 100.523 1844.67 103.018 1844.27 103.617C1842.27 106.013 1841.57 109.407 1842.17 113.799C1846.57 153.529 1854.15 173.394 1864.93 173.394C1868.73 173.394 1872.92 171.098 1877.51 166.506C1880.11 164.31 1882.4 163.212 1884.4 163.212C1886.79 163.212 1887.99 164.51 1887.99 167.105C1887.99 168.503 1887.39 169.701 1886.2 170.699C1869.82 185.473 1856.05 192.86 1844.87 192.86C1834.09 192.86 1826.1 185.773 1820.91 171.598C1818.32 164.011 1815.22 148.937 1811.63 126.377C1800.45 135.561 1784.87 147.839 1764.91 163.212C1761.91 165.209 1759.32 166.207 1757.12 166.207C1755.13 166.207 1753.33 165.309 1751.73 163.512C1749.94 161.515 1749.04 159.519 1749.04 157.522C1749.04 154.727 1750.63 152.132 1753.83 149.736C1771.6 137.358 1790.26 124.181 1809.83 110.206C1809.83 110.405 1809.63 107.51 1809.23 101.521C1809.03 95.3319 1808.93 89.5421 1808.93 84.1516C1808.93 41.2273 1816.62 17.2695 1831.99 12.2783C1833.59 11.6793 1835.38 11.3799 1837.38 11.3799C1843.37 11.3799 1848.36 13.576 1852.36 17.9683C1853.35 19.1662 1853.85 20.4639 1853.85 21.8614C1853.85 23.0593 1852.95 25.3553 1851.16 28.7493C1844.57 47.3165 1841.17 67.9801 1840.98 90.74C1857.35 78.7611 1877.71 62.9889 1902.07 43.4234C1907.06 39.4304 1910.85 37.434 1913.45 37.434C1915.44 37.434 1917.14 38.3324 1918.54 40.1292Z" fill="#CB997E"></path><path d="M1813.17 17.0697C1814.97 16.87 1815.87 17.9681 1815.87 20.3639C1815.87 23.7579 1813.57 25.5547 1808.98 25.7544C1805.79 25.7544 1801.39 25.954 1795.8 26.3533C1780.63 38.5318 1761.86 62.3898 1739.5 97.9272C1718.74 130.669 1704.26 157.822 1696.08 179.384C1703.87 179.384 1710.45 179.483 1715.84 179.683C1720.04 179.883 1722.13 181.48 1722.13 184.475C1722.13 187.469 1721.04 188.967 1718.84 188.967C1701.27 188.567 1692.39 188.368 1692.19 188.368C1691.19 190.364 1690.59 192.76 1690.39 195.555C1690.19 198.35 1689.79 199.848 1689.19 200.047C1687.79 200.846 1685.8 200.347 1683.2 198.55C1679.61 195.954 1677.01 192.56 1675.42 188.368C1668.63 188.567 1659.94 189.166 1649.36 190.165C1645.37 190.564 1643.37 188.667 1643.37 184.475C1643.37 181.48 1644.77 179.883 1647.56 179.683C1653.55 179.084 1662.14 178.785 1673.32 178.785C1671.52 162.214 1681.51 135.76 1703.27 99.4245C1721.04 69.8766 1738.5 45.7192 1755.67 26.9523C1747.09 26.9523 1741.4 26.8524 1738.6 26.6528C1736.01 26.2535 1734.71 24.7561 1734.71 22.1607C1734.71 17.5688 1736.91 15.4725 1741.3 15.8718C1752.08 16.87 1761.36 17.469 1769.15 17.6686C1773.94 15.2728 1778.33 14.075 1782.33 14.075C1788.52 14.075 1793.21 15.2728 1796.4 17.6686C1803.79 17.6686 1809.38 17.469 1813.17 17.0697Z" fill="#CB997E"></path><path d="M1693.4 39.8298C1693.99 45.6195 1692.2 51.2097 1688.01 56.6002C1652.27 103.118 1624.82 148.139 1605.65 191.662C1604.25 194.657 1602.96 198.849 1601.76 204.24C1601.76 204.24 1601.76 205.937 1601.76 209.331C1601.76 210.928 1600.76 211.727 1598.76 211.727C1596.97 211.727 1595.57 211.328 1594.57 210.529C1585.99 205.737 1582.29 196.354 1583.49 182.379C1585.69 158.421 1608.75 116.295 1652.67 56.0012C1653.47 54.8034 1653.87 53.8051 1653.87 53.0065C1653.87 52.0083 1653.27 51.5092 1652.07 51.5092C1651.27 51.5092 1650.07 51.8086 1648.48 52.4076C1627.11 61.5914 1602.26 80.4582 1573.91 109.008C1560.33 122.784 1542.66 143.747 1520.9 171.897C1518.1 175.491 1514.21 177.287 1509.22 177.287C1506.03 177.287 1503.13 176.389 1500.54 174.592C1497.14 171.997 1495.44 168.203 1495.44 163.212C1495.44 159.619 1496.44 156.324 1498.44 153.33C1512.81 132.367 1529.98 105.115 1549.95 71.5738C1552.14 67.7805 1553.24 64.9854 1553.24 63.1886C1553.24 61.9907 1552.74 61.3918 1551.75 61.3918C1550.55 61.3918 1548.75 62.1903 1546.36 63.7875C1524.79 78.3618 1505.33 94.733 1487.96 112.901C1459.01 143.247 1438.45 166.806 1426.27 183.576C1423.27 187.769 1418.38 189.865 1411.59 189.865C1409.2 189.865 1406.9 189.466 1404.7 188.667C1399.11 186.471 1396.32 182.279 1396.32 176.09C1396.32 173.694 1396.92 171.598 1398.12 169.801C1399.71 167.006 1417.28 142.349 1450.82 95.8311C1476.58 60.094 1490.15 36.7352 1491.55 25.7546C1492.35 19.7651 1490.25 16.7704 1485.26 16.7704C1477.68 16.7704 1465.5 22.8597 1448.73 35.0382C1433.15 46.2185 1423.27 55.2027 1419.08 61.9907C1416.88 65.3847 1414.09 67.0817 1410.69 67.0817C1406.9 67.0817 1405 65.0852 1405 61.0923C1405 58.2972 1407 54.9032 1410.99 50.9102C1420.98 40.5285 1433.25 31.0452 1447.83 22.4604C1467.59 10.6811 1485.66 4.7915 1502.03 4.7915C1514.21 4.7915 1520.3 10.182 1520.3 20.963C1520.3 32.3429 1513.71 49.2132 1500.54 71.5738C1496.74 77.9625 1488.66 90.2409 1476.28 108.409C1473.48 112.601 1472.09 114.798 1472.09 114.997C1472.09 115.197 1472.09 115.297 1472.09 115.297C1472.88 114.897 1474.58 113.4 1477.18 110.805C1527.69 60.2937 1562.03 35.0382 1580.2 35.0382C1588.98 35.0382 1593.37 39.2308 1593.37 47.616C1593.37 53.8051 1587.88 66.3829 1576.9 85.3495C1574.51 88.9432 1571.11 94.134 1566.72 100.922C1566.72 100.922 1571.81 96.3302 1581.99 87.1464C1593.57 76.7647 1608.55 65.3847 1626.91 53.0065C1650.27 37.2343 1667.14 28.6495 1677.52 27.2519C1687.11 25.8544 1692.4 30.047 1693.4 39.8298Z" fill="#CB997E"></path></svg> 